<svg xmlns="http://www.w3.org/2000/svg" viewBox="0 0 366.97 72.27"><title>Hootsuite logo - Brandlogos.net</title><path d="M375.76,528a12.12,12.12,0,0,1-9.74-.68.21.21,0,0,0-.26.34c1.34,1.44,3.74,4,5.19,5.21a.74.74,0,0,0,1-.07l4-4.44A.22.22,0,0,0,375.76,528Z" transform="translate(-328.51 -475.86)" style="fill:#fff"/><path d="M391.46,509.45c-2.16-4.67-5.37-9-10.25-9.58a4.07,4.07,0,0,0-2.53.55l-5.31,3.14a3.74,3.74,0,0,1-4.21-.27l-4.62-3.57a13.71,13.71,0,0,0-5.22-2.52c-7.92-1.87-13.31,2.29-17.37,10.1-3.88,7.46-1.71,18.16,7.85,20.7,10.1,2.68,16.77-8.53,19.43-12.26a1.29,1.29,0,0,1,2.09,0c4.13,5.63,9.71,11.65,15.68,10.45C394.81,524.61,393.89,514.72,391.46,509.45Zm-29.2,5.94a4.29,4.29,0,1,1,1.11-5.92A4.09,4.09,0,0,1,362.25,515.39Zm20.64.39a4.29,4.29,0,1,1,1.11-5.92A4.09,4.09,0,0,1,382.89,515.78Z" transform="translate(-328.51 -475.86)" style="fill:#fff"/><path d="M371.19,518.63a1,1,0,0,0-1.51,0l-4.23,5a.53.53,0,0,0,.09.77c1,.7,3.37,2.23,5.7,2.23a11.78,11.78,0,0,0,5.06-1.31.53.53,0,0,0,.15-.82Z" transform="translate(-328.51 -475.86)" style="fill:#fff"/><path d="M419.31,532.87v-33.6h7.45v14.59h24.73V499.27h7.45v33.6h-7.45v-12.7H426.77v12.7Z" transform="translate(-328.51 -475.86)" style="fill:#ff4c46"/><path d="M480,533.71q-7.4,0-11.92-3.83a13.63,13.63,0,0,1,0-20.26q4.51-3.83,11.92-3.83t12,3.83a13.63,13.63,0,0,1,0,20.26Q487.48,533.71,480,533.71Zm0-5.77a10.26,10.26,0,0,0,6.93-2.26,8.08,8.08,0,0,0,0-11.92A10.26,10.26,0,0,0,480,511.5a10.1,10.1,0,0,0-6.88,2.28,7.52,7.52,0,0,0-2.62,6,7.44,7.44,0,0,0,2.62,5.93A10.17,10.17,0,0,0,480,527.93Z" transform="translate(-328.51 -475.86)" style="fill:#ff4c46"/><path d="M516.27,533.71q-7.4,0-11.92-3.83a13.63,13.63,0,0,1,0-20.26q4.51-3.83,11.92-3.83t12,3.83a13.63,13.63,0,0,1,0,20.26Q523.72,533.71,516.27,533.71Zm0-5.77a10.26,10.26,0,0,0,6.93-2.26,8.08,8.08,0,0,0,0-11.92,10.26,10.26,0,0,0-6.93-2.26,10.1,10.1,0,0,0-6.88,2.28,7.52,7.52,0,0,0-2.62,6,7.44,7.44,0,0,0,2.62,5.93A10.17,10.17,0,0,0,516.27,527.93Z" transform="translate(-328.51 -475.86)" style="fill:#ff4c46"/><path d="M546.52,533.39a7.13,7.13,0,0,1-6.12-2.9c-1-1.36-1.75-3.15-1.75-7.07V512h-3.78v-5.41h4.83v-7.35h6.4v7.35h7.56V512H546.1v9.82c-.06,2.93.41,4,1.13,4.71,1.25,1.25,5.06.4,6.43-.47v5.69C552.06,532.89,549.18,533.39,546.52,533.39Z" transform="translate(-328.51 -475.86)" style="fill:#ff4c46"/><path d="M572.66,533.71a50.5,50.5,0,0,1-14.07-2v-6a35.86,35.86,0,0,0,12.86,2.26,28.32,28.32,0,0,0,7.14-.63q2.15-.63,2.15-2.26t-2.39-2.13a29.77,29.77,0,0,0-5.83-.76q-3.44-.16-6.88-.6a12.48,12.48,0,0,1-5.83-2.18,5.68,5.68,0,0,1-2.39-4.88,7,7,0,0,1,4.15-6.51q4.15-2.21,11.29-2.21A69.54,69.54,0,0,1,586,507.25V513a59.7,59.7,0,0,0-12.34-1.36q-8.93,0-8.92,2.73,0,1.37,2.41,1.92a36.67,36.67,0,0,0,5.83.76q3.41.21,6.85.71a12.77,12.77,0,0,1,5.85,2.28,5.85,5.85,0,0,1,2.41,5,6.94,6.94,0,0,1-4.09,6.54Q579.9,533.71,572.66,533.71Z" transform="translate(-328.51 -475.86)" style="fill:#ff4c46"/><path d="M623.73,506.62v26.25h-8.19l1-10.81h-.42q-1.84,11.65-12.91,11.65-5.67-.11-8.29-3.7t-2.63-12V506.62h7.46v10.5q0,5.93,1.68,8.45t5.51,2.52a7.72,7.72,0,0,0,6.77-3.89q2.52-3.88,2.52-10.34v-7.24Z" transform="translate(-328.51 -475.86)" style="fill:#ff4c46"/><path d="M633.85,504.1a4.87,4.87,0,0,1-3.36-1.08,4,4,0,0,1-1.21-3.18,4,4,0,0,1,1.21-3.15,5,5,0,0,1,3.36-1,5.15,5.15,0,0,1,3.44,1,3.91,3.91,0,0,1,1.23,3.15Q638.52,504.1,633.85,504.1Zm-3.62,28.77V506.62h7.46v26.25Z" transform="translate(-328.51 -475.86)" style="fill:#ff4c46"/><path d="M679.68,533.71q-7.14,0-11.47-3.83a14,14,0,0,1,0-20.26q4.33-3.83,11.47-3.83T691,509.06a10.6,10.6,0,0,1,4.44,8.64V522H671a6.29,6.29,0,0,0,3.33,4.62q2.7,1.42,8,1.42a22,22,0,0,0,9-1.57c.34-.13,2.8-1.21,3-1.31v6a38.1,38.1,0,0,1-6.88,2A46,46,0,0,1,679.68,533.71Zm-8.82-15.33L688.4,518q-.16-3.46-2.26-5t-6.46-1.5q-4.2,0-6.33,1.6T670.86,518.38Z" transform="translate(-328.51 -475.86)" style="fill:#ff4c46"/><path d="M654.31,533.39a7.13,7.13,0,0,1-6.12-2.9c-1-1.36-1.75-3.15-1.75-7.07V512h-3.78v-5.41h4.83v-7.35h6.4v7.35h7.56V512h-7.56v9.82c-.06,2.93.41,4,1.13,4.71,1.25,1.25,5.06.4,6.43-.47v5.69C659.85,532.89,657,533.39,654.31,533.39Z" transform="translate(-328.51 -475.86)" style="fill:#ff4c46"/><path d="M364.46,484.84c-7.65-.05-16.15,4.65-22.37,11.65-4.51,5.07-10.18,19.1-13,26.42a9.39,9.39,0,0,0,1.47,9.22c4.9,6,15.11,15.87,34.87,16,18.1.13,27.32-7.93,31.65-13.85a13.11,13.11,0,0,0,2-11.4c-1.92-6.61-6-18-12.58-25.94C379,488,372.1,484.89,364.46,484.84Z" transform="translate(-328.51 -475.86)" style="fill:#ff4c46"/><path d="M370.91,503.2c11.2-7.79,17.27-1,20.68,6.48,2.46,5.41,3.33,15.53-4.66,17.09-6.12,1.19-11.78-5-16-10.8a1.33,1.33,0,0,0-2.14,0c-2.76,3.8-9.65,15.22-20,12.4-9.75-2.67-11.89-13.64-7.84-21.22C347,495.71,355.79,492,370.91,503.2Z" transform="translate(-328.51 -475.86)" style="fill:#fff"/><path d="M364.92,527.78c1.28,1.41,4,4.29,5.56,5.66a.75.75,0,0,0,1-.06l4.31-4.74a.15.15,0,0,0-.16-.25,12.42,12.42,0,0,1-10.57-.85.16.16,0,0,0-.19.24Z" transform="translate(-328.51 -475.86)" style="fill:#fff"/><path d="M369.26,518.94l-4.4,5.1a.54.54,0,0,0,0,.77l0,0c1,.73,3.43,2.31,5.81,2.33a12.05,12.05,0,0,0,5.19-1.31.54.54,0,0,0,.23-.73l-.07-.11-5.35-6.1a1,1,0,0,0-1.44,0l-.05.05Z" transform="translate(-328.51 -475.86)" style="fill:#fff"/><path d="M384,510a4.33,4.33,0,1,1-6-1.26,4.19,4.19,0,0,1,5.84,1Z" transform="translate(-328.51 -475.86)" style="fill:#ff4c46"/><path d="M368.84,503.2a3.83,3.83,0,0,0,4.3.31l27.22-15.86a.75.75,0,0,0-.42-1.4l-29.47,2.44-33.61-12.78a.9.9,0,0,0-.87,1.54Z" transform="translate(-328.51 -475.86)" style="fill:#ff4c46"/><path d="M356.83,507.63a4.26,4.26,0,1,0,5.39,2.7.19.19,0,0,0,0-.11,4.07,4.07,0,0,0-5-2.72C357.08,507.49,357,507.56,356.83,507.63Z" transform="translate(-328.51 -475.86)" style="fill:#ff4c46"/></svg>