<?xml version="1.0" encoding="UTF-8"?><svg id="a" xmlns="http://www.w3.org/2000/svg" width="455.99" height="113.99" viewBox="0 0 455.99 113.99">
<title>Linkedin logo - Brandlogos.net</title><path d="M350.14,0h97.71c4.5,0,8.14,3.64,8.14,8.14h0v97.71c0,4.5-3.64,8.14-8.14,8.14h-97.71c-4.5,0-8.14-3.64-8.14-8.14h0V8.14c0-4.5,3.64-8.14,8.14-8.14h0ZM361.22,32.2c4.29,3.02,10.22,2,13.24-2.29,3.02-4.29,2-10.22-2.29-13.24-4.29-3.02-10.22-2-13.24,2.29-1.83,2.6-2.24,5.95-1.09,8.92.68,1.74,1.86,3.25,3.39,4.32h-.01ZM423.42,97.72h16.29l-.22-33.87c0-16.67-10.26-21.71-19.87-21.71-7.04-.08-13.7,3.21-17.91,8.86v-7.55h-16.28v54.29h16.29v-27.17c-.67-6.89,4.38-13.02,11.27-13.69.15-.01.31-.03.46-.04,6,0,10,4.45,10,13.25l-.03,27.63ZM358.28,43.43v54.29h16.29v-54.29h-16.29Z" style="fill:#0a66c2;"/><path d="M62.66,16.66c4.28-3.03,10.21-2.01,13.24,2.27,3.03,4.28,2.01,10.21-2.27,13.24s-10.21,2.01-13.24-2.27c-1.83-2.6-2.25-5.94-1.11-8.9.67-1.75,1.85-3.26,3.38-4.34Z" style="fill:#0a66c2;"/><path d="M59.71,43.43h16.29v54.29h-16.29v-54.29Z" style="fill:#0a66c2;"/><path d="M121.27,42.13c-7.12-.15-13.88,3.15-18.13,8.87v-7.55h-16.28v54.29h16.29v-27.17c-.52-6.91,4.65-12.93,11.56-13.45.06,0,.11,0,.17-.01,6,0,10,4.45,10,13.25v27.36h16.29v-33.93c-.03-16.62-10.29-21.66-19.9-21.66Z" style="fill:#0a66c2;"/><path d="M16.29,16.29H0v81.43h48.86v-16.29H16.29V16.29Z" style="fill:#0a66c2;"/><path d="M301.57,43.51c2.96,1.22,5.64,3.04,7.86,5.35V16.29h16.29v81.43h-15.31v-7.12c-4.08,5.84-10.89,9.15-18,8.74-14.98-.36-26.84-12.81-26.47-27.79.01-.43.03-.87.06-1.3-1.02-14.66,10.03-27.36,24.68-28.39.51-.04,1.02-.06,1.54-.06,3.2-.09,6.39.5,9.35,1.71ZM290,84.59c1.77.78,3.69,1.18,5.63,1.18,7.79.17,14.24-6.01,14.41-13.8,0-.47,0-.93-.04-1.4.51-7.87-5.46-14.66-13.33-15.17-.33-.02-.67-.03-1-.03-8.46.43-14.96,7.63-14.54,16.09.29,5.68,3.7,10.74,8.87,13.13Z" style="fill:#0a66c2;"/><path d="M206.5,43.43h-19.76l-18.13,21.93h-.33V16.29h-16.28v81.43h16.29v-26.12h.33l18.57,26.11h20.36l-22-29.86,20.95-24.42Z" style="fill:#0a66c2;"/><path d="M223.31,43.74c3.44-1.38,7.12-2.04,10.82-1.94,14.77,0,26.44,9.88,26,30v4.2h-38v.33c.68,6.51,6.39,11.3,12.92,10.86,4.9.05,9.6-1.91,13-5.43l10.48,7.06c-5.91,6.97-14.69,10.85-23.83,10.53-15.31.42-28.07-11.65-28.49-26.96-.02-.84,0-1.68.04-2.52-.4-11.42,6.4-21.87,17-26.13h.06ZM225.84,57c-2.25,2.14-3.56,5.08-3.64,8.18h22.8c.3-5.99-4.32-11.09-10.31-11.39-.18,0-.37-.01-.55-.01-3.08-.06-6.06,1.1-8.3,3.22Z" style="fill:#0a66c2;"/></svg>