<svg xmlns="http://www.w3.org/2000/svg" xmlns:xlink="http://www.w3.org/1999/xlink" viewBox="0 0 293.8 133.07"><defs><clipPath id="a" transform="translate(-344.2 -437.28)"><polygon points="567.41 471.94 567.41 537.32 628.89 537.32 629.22 471.94 567.41 471.94" style="fill:none"/></clipPath><linearGradient id="b" x1="193.85" y1="912.19" x2="196.11" y2="912.19" gradientTransform="matrix(0, 27.82, 27.82, 0, -25123.44, -5357.6)" gradientUnits="userSpaceOnUse"><stop offset="0" stop-color="#ffe400"/><stop offset="0.01" stop-color="#ffe400"/><stop offset="1" stop-color="#f9b900"/></linearGradient><clipPath id="c" transform="translate(-344.2 -437.28)"><polygon points="500.73 477.8 497.15 480.73 505.28 537.32 564.81 529.52 556.35 470.31 500.73 477.8" style="fill:none"/></clipPath><linearGradient id="d" x1="201.28" y1="917.68" x2="203.54" y2="917.68" gradientTransform="matrix(0, 34.98, 34.98, 0, -31572.26, -6576.69)" gradientUnits="userSpaceOnUse"><stop offset="0" stop-color="#1989ca"/><stop offset="0.01" stop-color="#1989ca"/><stop offset="1" stop-color="#025d99"/></linearGradient><clipPath id="e" transform="translate(-344.2 -437.28)"><polygon points="426.24 514.23 479.59 538.3 503.66 483.33 449.98 458.93 426.24 514.23" style="fill:none"/></clipPath><linearGradient id="f" x1="192.19" y1="909.59" x2="194.44" y2="909.59" gradientTransform="matrix(0, 24.37, 24.37, 0, -22049.2, -4640.37)" gradientUnits="userSpaceOnUse"><stop offset="0" stop-color="#209838"/><stop offset="1" stop-color="#008449"/></linearGradient><clipPath id="g" transform="translate(-344.2 -437.28)"><polygon points="355 479.43 364.43 537.32 423.96 528.22 414.85 470.31 355 479.43" style="fill:none"/></clipPath><linearGradient id="h" x1="192.8" y1="910.15" x2="195.06" y2="910.15" gradientTransform="matrix(0, 25.65, 25.65, 0, -22955.86, -4469.97)" gradientUnits="userSpaceOnUse"><stop offset="0" stop-color="#d41525"/><stop offset="1" stop-color="#b91b2a"/></linearGradient></defs><title>Zoho logo - Brandlogos.net</title><polygon points="293.8 24.25 293.8 91.26 284.69 100.04 284.69 34.66 293.8 24.25" style="fill:#e69000"/><g style="clip-path:url(#a)"><rect x="223.22" y="34.66" width="61.8" height="65.38" style="fill:url(#b)"/></g><polygon points="232.97 24.25 223.21 34.66 285.02 34.66 293.8 24.25 232.97 24.25" style="fill:#ffef66"/><polygon points="156.86 26.85 217.36 18.72 212.15 33.03 154.91 42.14 155.23 31.41 156.86 26.85" style="fill:#a1ceef"/><g style="clip-path:url(#c)"><rect x="483.67" y="456.46" width="94.61" height="94.71" transform="translate(-538.52 165.09) rotate(-51.23)" style="fill:url(#d)"/></g><polyline points="217.36 18.72 217.36 19.05 225.17 79.22 220.61 92.23 212.15 33.03" style="fill:#1a97d5"/><g style="clip-path:url(#e)"><rect x="82.04" y="21.65" width="77.42" height="79.37" style="fill:url(#f)"/></g><polygon points="100.26 3.43 105.79 21.65 159.46 46.05 154.91 28.48 100.26 3.43" style="fill:#a3cf9e"/><polygon points="100.26 3.43 78.79 54.17 82.04 76.95 105.79 21.65 100.26 3.43" style="fill:#6eb75e"/><g style="clip-path:url(#g)"><rect x="349.99" y="465.13" width="78.99" height="77.38" transform="matrix(0.99, -0.16, 0.16, 0.99, -421.29, -366.86)" style="fill:url(#h)"/></g><polygon points="10.8 42.14 15.03 21.32 74.88 11.89 70.66 33.03 10.8 42.14" style="fill:#e63932"/><polygon points="74.88 11.89 83.34 70.12 79.76 90.93 70.65 33.03 74.88 11.89" style="fill:#7b1713"/><path d="M619.45,495.36a24,24,0,0,0-5.53-8.13,29.84,29.84,0,0,0-7.81-5.2,21.22,21.22,0,0,0-9.43-2,19.69,19.69,0,0,0-9.43,2c-2.6,1.3-5.53,2.6-7.81,5.2a27.74,27.74,0,0,0-5.53,8.13,25.36,25.36,0,0,0-2,10.08c0,3.58.33,7.15,2,10.08,1.3,3.25,2.6,5.86,5.21,8.13a21.87,21.87,0,0,0,7.81,5.2,23.3,23.3,0,0,0,9.43,2c3.25,0,6.18-.33,8.78-2,2.6-1.3,5.53-2.6,7.81-5.2a27.79,27.79,0,0,0,5.53-8.13,25.35,25.35,0,0,0,2-10.08,15.11,15.11,0,0,0-1-10.08m-12.68,21.79a13.37,13.37,0,0,1-19.52,0c-2.28-2.6-3.58-6.51-3.58-11.71a19.61,19.61,0,0,1,3.58-12,13.37,13.37,0,0,1,19.52,0c2.28,2.6,3.58,6.5,3.58,12,0,5.2-1,9.11-3.58,11.71m-198.1,2a10.17,10.17,0,0,0-2-1.3,8.13,8.13,0,0,0-2.6-.32,16.09,16.09,0,0,0-3.58.32l-15.29,2.6c0-1.3,1-2.6,2-4.55a53.55,53.55,0,0,1,5.2-7.81,19.73,19.73,0,0,1,2-2.28,7.11,7.11,0,0,0,1.3-1.63c3.58-4.55,5.86-8.46,6.51-11.39a29.25,29.25,0,0,0,1-5.2v-1.63a13.35,13.35,0,0,0-.33-3.58,3.2,3.2,0,0,0-1-2.6c-.65-.65-1-1.3-1.63-1.63-.33-.32-1.63-.32-2.6-.32a14.69,14.69,0,0,0-3.58.32l-17.89,3.25a15.84,15.84,0,0,0-5.2,2,3.88,3.88,0,0,0-1.3,2.6v1c0,1.63,1.3,2.6,2.28,3.25a7.17,7.17,0,0,0,2.6.33h2.28l15.29-2.6v1a6.34,6.34,0,0,1-.33,2.6,16.33,16.33,0,0,1-3.25,5.2c-.33.33-1.3,1.63-2.28,2.6-3.9,5.2-7.16,8.78-8.46,13a19,19,0,0,0-2.6,7.16,15.84,15.84,0,0,0-.33,3.9v2.6c0,1.3.33,2.28,1,2.6.33,1,1,1.63,1.63,1.63.33.33,1.63.33,2.6.33a16,16,0,0,0,6.18-1l16.26-2.6c2.6-.33,5.2-1.3,6.18-2.28a4.5,4.5,0,0,0,1.63-3.25v-1c-1,0-1.3-.65-1.63-1.3m74.16-39.36a21.92,21.92,0,0,0-7.81-5.2,20.39,20.39,0,0,0-8.78-2,23.63,23.63,0,0,0-16.91,7.81,26.9,26.9,0,0,0-5.53,8.78,22.73,22.73,0,0,0-2.28,10.08v1.3a17.91,17.91,0,0,0,1.63,8.46,18.39,18.39,0,0,0,5.2,7.81,21.92,21.92,0,0,0,7.81,5.2,20.39,20.39,0,0,0,8.78,2,23.6,23.6,0,0,0,16.92-7.81,30.85,30.85,0,0,0,5.53-8.78,24.82,24.82,0,0,0,2.28-10.08v-1a20.1,20.1,0,0,0-1.63-8.78c-2-2.6-3.25-5.53-5.2-7.81M477,503.49q-2.93,6.83-7.81,9.76a12,12,0,0,1-5.53,1.63,11.16,11.16,0,0,1-5.2-1.3,12.16,12.16,0,0,1-7.16-7.81,15.85,15.85,0,0,1-.33-3.9c0-2.6,1-5.53,2-8.46,2-5.2,4.55-8.13,7.81-10.08a12,12,0,0,1,5.53-1.63,11.16,11.16,0,0,1,5.2,1.3,13,13,0,0,1,7.15,7.81,14.6,14.6,0,0,1,.33,3.9,22.68,22.68,0,0,1-2,8.78m69.61-21.79a5.79,5.79,0,0,0-2-4.23,3.88,3.88,0,0,0-2.6-1.3h-1c-1.63,0-2.6,1-3.58,2.28a9.54,9.54,0,0,0-1,3.25v1.63l2.28,15.29-17.24,2.6-2.28-15.29a5.8,5.8,0,0,0-2-4.23,3.88,3.88,0,0,0-2.6-1.3h-1c-1.63,0-2.6,1-3.58,2.28a9.52,9.52,0,0,0-1,3.25v1.63l5.86,40a5.79,5.79,0,0,0,2,4.23,4.17,4.17,0,0,0,3.25,1.3h1.3a3.54,3.54,0,0,0,3.25-2.28,9.58,9.58,0,0,0,1-3.25v-1.63l-2.28-15.61,17.24-2.6L543,523.34a5.79,5.79,0,0,0,2,4.23,4.17,4.17,0,0,0,3.25,1.3h1c1.63,0,2.6-1,3.58-2.28a9.53,9.53,0,0,0,1-3.25v-1.63Z" transform="translate(-344.2 -437.28)" style="fill:#fff"/></svg>